<?xml version="1.0" encoding="iso-8859-1"?>
<!-- Generator: Adobe Illustrator 19.0.0, SVG Export Plug-In . SVG Version: 6.00 Build 0)  -->
<svg version="1.1" id="Capa_1" xmlns="http://www.w3.org/2000/svg" xmlns:xlink="http://www.w3.org/1999/xlink" x="0px" y="0px"
	 viewBox="0 0 512 512" style="enable-background:new 0 0 512 512;" xml:space="preserve">
<g>
	<g>
		<path d="M256,0C114.615,0,0,114.615,0,256s114.615,256,256,256s256-114.615,256-256S397.385,0,256,0z M256,23.273
			c83.06,0.085,159.779,44.431,201.309,116.364H256c-58.792,0.038-108.319,43.924-115.433,102.284L69.004,117.876
			C112.808,58.474,182.193,23.371,256,23.273z M336.57,219.846c21.809,45.063,2.957,99.274-42.106,121.082
			c-44.242,21.411-97.488,3.663-120.035-40.012l-1.047-2.095c-21.809-45.063-2.957-99.274,42.106-121.082
			C260.551,155.931,314.762,174.782,336.57,219.846z M230.051,487.215C102.337,472.741,10.537,357.475,25.01,229.761
			c3.599-31.761,13.703-62.44,29.681-90.125l98.327,170.24c28.163,53.882,93.059,77.001,148.945,53.062L230.051,487.215z
			 M348.971,469.298c-29.325,12.799-60.975,19.413-92.971,19.429l101.236-174.545c29.343-51.105,15.848-116.078-31.418-151.273
			h143.36C520.591,280.71,466.772,417.885,348.971,469.298z"/>
	</g>
</g>
<g>
</g>
<g>
</g>
<g>
</g>
<g>
</g>
<g>
</g>
<g>
</g>
<g>
</g>
<g>
</g>
<g>
</g>
<g>
</g>
<g>
</g>
<g>
</g>
<g>
</g>
<g>
</g>
<g>
</g>
</svg>
