<svg height="469pt" viewBox="0 -53 469.33333 469" width="469pt" xmlns="http://www.w3.org/2000/svg"><path d="m373.332031 116.699219h21.335938v235.414062h-21.335938zm0 0"/><path d="m74.667969 116.699219h21.332031v235.414062h-21.332031zm0 0"/><path d="m419.199219 362.832031h-369.066407c-27.6875 0-50.132812-22.445312-50.132812-50.132812v-262.398438c0-27.6875 22.445312-50.132812 50.132812-50.132812h369.066407c27.6875 0 50.132812 22.445312 50.132812 50.132812v262.398438c0 27.6875-22.445312 50.132812-50.132812 50.132812zm-369.066407-341.332031c-15.90625 0-28.800781 12.894531-28.800781 28.800781v262.398438c0 15.90625 12.894531 28.800781 28.800781 28.800781h369.066407c15.90625 0 28.800781-12.894531 28.800781-28.800781v-262.398438c0-15.90625-12.894531-28.800781-28.800781-28.800781zm0 0"/><path d="m234.667969 263.898438-231.066407-205.597657 14.132813-16 216.933594 193.066407 216.933593-193.066407 14.132813 16zm0 0"/><path d="m234.667969 167.898438-169.601563-149.066407 14-16 155.601563 136.667969 155.464843-136.667969 14.132813 16zm0 0"/></svg>